<?xml version="1.0" standalone="no"?>
<!DOCTYPE svg PUBLIC "-//W3C//DTD SVG 20010904//EN"
 "http://www.w3.org/TR/2001/REC-SVG-20010904/DTD/svg10.dtd">
<svg version="1.0" xmlns="http://www.w3.org/2000/svg"
 width="400.000000pt" height="400.000000pt" viewBox="0 0 400.000000 400.000000"
 preserveAspectRatio="xMidYMid meet">
<metadata>
Created by potrace 1.14, written by Peter Selinger 2001-2017
</metadata>
<g transform="translate(0.000000,400.000000) scale(0.100000,-0.100000)"
fill="#000000" stroke="none">
<path d="M1780 3930 c-113 -15 -147 -22 -247 -46 -205 -50 -425 -147 -603
-265 -52 -35 -97 -65 -100 -68 -3 -3 -30 -26 -60 -51 -130 -105 -263 -249
-369 -398 -28 -39 -51 -74 -51 -76 0 -2 -19 -37 -43 -78 -90 -154 -161 -341
-202 -533 -35 -164 -36 -174 -40 -380 -4 -223 5 -315 51 -499 38 -150 70 -238
139 -381 177 -367 450 -655 810 -856 275 -154 554 -227 890 -234 405 -8 699
69 1048 273 164 97 369 274 499 432 183 221 339 545 394 815 9 49 24 123 29
155 11 58 14 411 6 475 -18 126 -23 153 -46 246 -65 261 -181 505 -339 713
-64 84 -252 279 -321 333 -99 77 -135 102 -205 145 -210 127 -460 224 -658
254 -20 3 -57 10 -82 16 -54 12 -423 18 -500 8z"/>
</g>
</svg>
