<?xml version="1.0" encoding="utf-8"?>
<!-- Generator: Adobe Illustrator 25.0.0, SVG Export Plug-In . SVG Version: 6.00 Build 0)  -->
<svg version="1.2" baseProfile="tiny" id="Layer_1" xmlns="http://www.w3.org/2000/svg" xmlns:xlink="http://www.w3.org/1999/xlink"
	 x="0px" y="0px" viewBox="0 0 612 310.8" overflow="visible" xml:space="preserve">
<g>
	<g>
		<path fill="#C1BFBC" d="M384.7,171.1h-9.6v-2.4h9.6c8.1,0,14.7-6.6,14.7-14.7l0.1-26c0-9.4,7.7-17.1,17.2-17.1h140.4v2.4H416.7
			c-8.1,0-14.8,6.6-14.8,14.8l-0.1,26C401.8,163.4,394.1,171.1,384.7,171.1z"/>
	</g>
	<g>
		<path fill="#C1BFBC" d="M597,244.8H495.7c-9.3,0-16.8-7.5-16.8-16.8v-26.2c0-7.8-6.4-14.2-14.2-14.2h-89.7v-2.4h89.7
			c9.1,0,16.5,7.4,16.5,16.5V228c0,8,6.5,14.4,14.4,14.4H597V244.8z"/>
	</g>
	<g>
		<path fill="#C1BFBC" d="M505.8,298.9h-89.1c-9.6,0-17.4-7.8-17.4-17.3l-0.2-62.8c0-8.1-6.6-14.6-14.6-14.6h-9.4v-2.4h9.4
			c9.4,0,17,7.6,17,17l0.2,62.8c0,8.3,6.8,15,15,15h89.1V298.9z"/>
	</g>
	<g>
		<path fill="#C1BFBC" d="M205.8,298.8H65.4v-2.4h140.4c8.1,0,14.8-6.6,14.8-14.8l0.1-63.1c0-9.4,7.7-17,17.1-17h9.6v2.4h-9.6
			c-8.1,0-14.7,6.6-14.7,14.7l-0.1,63.1C222.9,291.1,215.2,298.8,205.8,298.8z"/>
	</g>
	<g>
		<path fill="#C1BFBC" d="M15,185h232.4v2.4H15"/>
	</g>
	<g>
		<path fill="#C1BFBC" d="M247.4,170.8H238c-9.4,0-17-7.6-17-17L220.9,91c0-8.3-6.8-15-15-15h-90.7v-2.4h90.7
			c9.6,0,17.4,7.8,17.4,17.3l0.2,62.8c0,8.1,6.6,14.6,14.6,14.6h9.4V170.8z"/>
	</g>
	<path fill="#DF3A13" d="M359.2,187.1c0,26.2-21.2,47.4-47.4,47.4c-26.2,0-47.4-21.2-47.4-47.4c0-26.2,21.2-47.4,47.4-47.4
		C338,139.7,359.2,160.9,359.2,187.1z"/>
	<g>
		<path fill="#C1BFBC" d="M311.6,243.1l-0.2,0c-0.4,0-0.8-0.4-0.8-0.8c0-0.4,0.3-0.8,0.8-0.8l0.2,0c0.4,0,0.8,0.4,0.8,0.8
			C312.4,242.8,312,243.1,311.6,243.1z M315.5,243c-0.4,0-0.8-0.3-0.8-0.7c0-0.4,0.3-0.8,0.7-0.8l0.2,0c0.4,0,0.8,0.3,0.8,0.7
			c0,0.4-0.3,0.8-0.7,0.8L315.5,243C315.6,243,315.6,243,315.5,243z M307.5,243C307.4,243,307.4,243,307.5,243l-0.3,0
			c-0.4,0-0.8-0.4-0.7-0.8c0-0.4,0.4-0.8,0.8-0.7l0.2,0c0.4,0,0.8,0.4,0.7,0.9C308.2,242.7,307.9,243,307.5,243z M319.7,242.6
			c-0.4,0-0.7-0.3-0.8-0.7c-0.1-0.4,0.2-0.8,0.7-0.9l0.2,0c0.4-0.1,0.8,0.2,0.9,0.7c0.1,0.4-0.2,0.8-0.7,0.9l-0.2,0
			C319.7,242.6,319.7,242.6,319.7,242.6z M303.3,242.5c0,0-0.1,0-0.1,0l-0.2,0c-0.4-0.1-0.7-0.5-0.7-0.9c0.1-0.4,0.5-0.7,0.9-0.7
			l0.2,0c0.4,0.1,0.7,0.5,0.7,0.9C304.1,242.2,303.7,242.5,303.3,242.5z M323.7,241.8c-0.4,0-0.7-0.2-0.8-0.6
			c-0.1-0.4,0.2-0.8,0.6-0.9l0.2,0c0.4-0.1,0.8,0.2,0.9,0.6c0.1,0.4-0.2,0.8-0.6,0.9l-0.2,0C323.9,241.8,323.8,241.8,323.7,241.8z
			 M299.3,241.7c-0.1,0-0.1,0-0.2,0l-0.2,0c-0.4-0.1-0.7-0.5-0.6-1c0.1-0.4,0.5-0.7,0.9-0.6l0.2,0c0.4,0.1,0.7,0.5,0.6,0.9
			C300,241.5,299.6,241.7,299.3,241.7z M327.8,240.8c-0.3,0-0.6-0.2-0.8-0.6c-0.1-0.4,0.1-0.9,0.5-1l0.2-0.1c0.4-0.1,0.9,0.1,1,0.5
			c0.1,0.4-0.1,0.9-0.5,1l-0.2,0.1C327.9,240.8,327.8,240.8,327.8,240.8z M295.3,240.6c-0.1,0-0.2,0-0.2,0l-0.2-0.1
			c-0.4-0.1-0.7-0.6-0.5-1c0.1-0.4,0.6-0.7,1-0.5l0.2,0.1c0.4,0.1,0.6,0.6,0.5,1C295.9,240.4,295.6,240.6,295.3,240.6z M331.7,239.5
			c-0.3,0-0.6-0.2-0.7-0.5c-0.2-0.4,0-0.9,0.4-1l0.2-0.1c0.4-0.2,0.9,0,1,0.4c0.2,0.4,0,0.9-0.4,1l-0.2,0.1
			C331.9,239.4,331.8,239.5,331.7,239.5z M291.4,239.2c-0.1,0-0.2,0-0.3-0.1l-0.2-0.1c-0.4-0.2-0.6-0.6-0.4-1c0.2-0.4,0.6-0.6,1-0.4
			l0.2,0.1c0.4,0.2,0.6,0.6,0.4,1C292,239.1,291.7,239.2,291.4,239.2z M335.5,237.8c-0.3,0-0.6-0.2-0.7-0.5c-0.2-0.4,0-0.9,0.4-1.1
			l0.2-0.1c0.4-0.2,0.9,0,1.1,0.4c0.2,0.4,0,0.9-0.4,1.1l-0.2,0.1C335.7,237.8,335.6,237.8,335.5,237.8z M287.6,237.6
			c-0.1,0-0.2,0-0.3-0.1l-0.2-0.1c-0.4-0.2-0.6-0.7-0.4-1.1c0.2-0.4,0.7-0.6,1.1-0.4l0.2,0.1c0.4,0.2,0.6,0.7,0.4,1.1
			C288.1,237.4,287.9,237.6,287.6,237.6z M339.1,235.9c-0.3,0-0.5-0.1-0.7-0.4c-0.2-0.4-0.1-0.9,0.3-1.1l0.2-0.1
			c0.4-0.2,0.9-0.1,1.1,0.3c0.2,0.4,0.1,0.9-0.3,1.1l-0.2,0.1C339.4,235.9,339.3,235.9,339.1,235.9z M283.9,235.6
			c-0.1,0-0.3,0-0.4-0.1l-0.2-0.1c-0.4-0.2-0.5-0.7-0.3-1.1c0.2-0.4,0.7-0.5,1.1-0.3l0.2,0.1c0.4,0.2,0.5,0.7,0.3,1.1
			C284.5,235.5,284.2,235.6,283.9,235.6z M342.7,233.7c-0.2,0-0.5-0.1-0.7-0.3c-0.2-0.4-0.2-0.9,0.2-1.1l0.2-0.1
			c0.4-0.2,0.9-0.2,1.1,0.2c0.2,0.4,0.2,0.9-0.2,1.1l-0.2,0.1C343,233.7,342.8,233.7,342.7,233.7z M280.4,233.4
			c-0.1,0-0.3,0-0.4-0.1l0,0l-0.1-0.1c-0.4-0.2-0.5-0.7-0.2-1.1c0.2-0.4,0.7-0.5,1.1-0.2l0.1,0.1c0.4,0.2,0.5,0.8,0.2,1.1
			C280.9,233.2,280.7,233.4,280.4,233.4z M346,231.3c-0.2,0-0.5-0.1-0.6-0.3c-0.3-0.3-0.2-0.8,0.1-1.1l0.2-0.1
			c0.3-0.3,0.8-0.2,1.1,0.1c0.3,0.3,0.2,0.8-0.1,1.1l-0.2,0.1C346.4,231.2,346.2,231.3,346,231.3z M277.1,230.9
			c-0.2,0-0.4-0.1-0.5-0.2l-0.1-0.1c-0.3-0.3-0.4-0.8-0.1-1.1c0.3-0.3,0.8-0.4,1.1-0.1l0.2,0.1c0.3,0.3,0.4,0.8,0.1,1.1
			C277.6,230.8,277.3,230.9,277.1,230.9z M349.2,228.6c-0.2,0-0.4-0.1-0.6-0.2c-0.3-0.3-0.3-0.8,0-1.1l0.1-0.1
			c0.3-0.3,0.8-0.3,1.1,0c0.3,0.3,0.3,0.8,0,1.1l-0.1,0.1C349.5,228.5,349.4,228.6,349.2,228.6z M274,228.2c-0.2,0-0.4-0.1-0.5-0.2
			l-0.1-0.1c-0.3-0.3-0.3-0.8,0-1.1c0.3-0.3,0.8-0.3,1.1,0l0.1,0.1c0.3,0.3,0.3,0.8,0,1.1C274.4,228.1,274.2,228.2,274,228.2z
			 M352.1,225.7c-0.2,0-0.4-0.1-0.5-0.2c-0.3-0.3-0.3-0.8,0-1.1l0.1-0.1c0.3-0.3,0.8-0.3,1.1,0c0.3,0.3,0.3,0.8,0,1.1l-0.1,0.1
			C352.5,225.6,352.3,225.7,352.1,225.7z M271.1,225.2c-0.2,0-0.4-0.1-0.6-0.3l-0.1-0.1c-0.3-0.3-0.3-0.8,0-1.1
			c0.3-0.3,0.8-0.3,1.1,0l0.1,0.1c0.3,0.3,0.3,0.8-0.1,1.1C271.4,225.2,271.3,225.2,271.1,225.2z M354.8,222.5
			c-0.2,0-0.3-0.1-0.5-0.2c-0.3-0.3-0.4-0.8-0.1-1.1l0.1-0.1c0.3-0.3,0.8-0.4,1.1-0.1c0.3,0.3,0.4,0.8,0.1,1.1l-0.1,0.1
			C355.3,222.4,355.1,222.5,354.8,222.5z M268.4,222.1c-0.2,0-0.5-0.1-0.6-0.3l-0.1-0.2c-0.3-0.3-0.2-0.8,0.1-1.1
			c0.3-0.3,0.8-0.2,1.1,0.1l0.1,0.2c0.3,0.3,0.2,0.8-0.1,1.1C268.7,222,268.6,222.1,268.4,222.1z M357.3,219.2c-0.2,0-0.3,0-0.4-0.1
			c-0.4-0.2-0.4-0.7-0.2-1.1l0.1-0.2c0.2-0.4,0.7-0.5,1.1-0.2c0.4,0.2,0.5,0.7,0.2,1.1l-0.1,0.2
			C357.8,219.1,357.6,219.2,357.3,219.2z M265.9,218.7c-0.3,0-0.5-0.1-0.7-0.4l-0.1-0.2c-0.2-0.4-0.2-0.9,0.2-1.1
			c0.4-0.2,0.9-0.2,1.1,0.2l0.1,0.2c0.2,0.4,0.1,0.9-0.2,1.1C266.2,218.7,266.1,218.7,265.9,218.7z M359.5,215.7
			c-0.1,0-0.3,0-0.4-0.1c-0.4-0.2-0.5-0.7-0.3-1.1l0.1-0.2c0.2-0.4,0.7-0.5,1.1-0.3c0.4,0.2,0.5,0.7,0.3,1.1l-0.1,0.2
			C360.1,215.6,359.8,215.7,359.5,215.7z M263.8,215.2c-0.3,0-0.5-0.1-0.7-0.4l-0.1-0.2c-0.2-0.4-0.1-0.9,0.3-1.1
			c0.4-0.2,0.9-0.1,1.1,0.3l0.1,0.2c0.2,0.4,0.1,0.9-0.3,1.1C264,215.2,263.9,215.2,263.8,215.2z M361.5,212.1c-0.1,0-0.2,0-0.3-0.1
			c-0.4-0.2-0.6-0.7-0.4-1.1l0.1-0.2c0.2-0.4,0.7-0.6,1.1-0.4c0.4,0.2,0.6,0.7,0.4,1.1l-0.1,0.2
			C362.1,211.9,361.8,212.1,361.5,212.1z M261.8,211.5c-0.3,0-0.6-0.2-0.7-0.5l-0.1-0.2c-0.2-0.4,0-0.9,0.4-1.1
			c0.4-0.2,0.9,0,1.1,0.4l0.1,0.2c0.2,0.4,0,0.9-0.4,1.1C262.1,211.5,262,211.5,261.8,211.5z M363.2,208.3c-0.1,0-0.2,0-0.3-0.1
			c-0.4-0.2-0.6-0.6-0.5-1l0.1-0.2c0.2-0.4,0.6-0.6,1-0.5c0.4,0.2,0.6,0.6,0.5,1l0,0.1C363.8,208,363.5,208.3,363.2,208.3z
			 M260.2,207.7c-0.3,0-0.6-0.2-0.7-0.5l-0.1-0.2c-0.2-0.4,0-0.9,0.5-1c0.4-0.2,0.9,0,1,0.5l0.1,0.2c0.2,0.4,0,0.9-0.5,1
			C260.4,207.7,260.3,207.7,260.2,207.7z M364.6,204.4c-0.1,0-0.2,0-0.2,0c-0.4-0.1-0.6-0.6-0.5-1l0.1-0.2c0.1-0.4,0.6-0.7,1-0.5
			c0.4,0.1,0.7,0.6,0.5,1l-0.1,0.2C365.2,204.2,364.9,204.4,364.6,204.4z M258.9,203.8c-0.3,0-0.7-0.2-0.8-0.6l-0.1-0.2
			c-0.1-0.4,0.1-0.9,0.5-1c0.4-0.1,0.9,0.1,1,0.5l0.1,0.2c0.1,0.4-0.1,0.9-0.5,1C259,203.8,258.9,203.8,258.9,203.8z M365.7,200.4
			c-0.1,0-0.1,0-0.2,0c-0.4-0.1-0.7-0.5-0.6-0.9l0-0.2c0.1-0.4,0.5-0.7,0.9-0.6c0.4,0.1,0.7,0.5,0.6,0.9l0,0.2
			C366.3,200.1,366,200.4,365.7,200.4z M257.8,199.8c-0.4,0-0.7-0.3-0.8-0.6l0-0.2c-0.1-0.4,0.2-0.8,0.6-0.9
			c0.4-0.1,0.8,0.2,0.9,0.6l0,0.2c0.1,0.4-0.2,0.8-0.6,0.9C257.9,199.8,257.9,199.8,257.8,199.8z M366.4,196.3c0,0-0.1,0-0.1,0
			c-0.4-0.1-0.7-0.5-0.7-0.9l0-0.2c0.1-0.4,0.5-0.7,0.9-0.7c0.4,0.1,0.7,0.5,0.7,0.9l0,0.2C367.2,196,366.8,196.3,366.4,196.3z
			 M257.1,195.7c-0.4,0-0.7-0.3-0.8-0.7l0-0.2c-0.1-0.4,0.2-0.8,0.7-0.9c0.4,0,0.8,0.2,0.9,0.7l0,0.2c0.1,0.4-0.2,0.8-0.7,0.9
			C257.2,195.7,257.1,195.7,257.1,195.7z M366.9,192.2C366.9,192.2,366.9,192.2,366.9,192.2c-0.5,0-0.8-0.4-0.8-0.9l0-0.2
			c0-0.4,0.4-0.8,0.8-0.7c0.4,0,0.8,0.4,0.7,0.8l0,0.2C367.7,191.9,367.3,192.2,366.9,192.2z M256.7,191.6c-0.4,0-0.8-0.3-0.8-0.7
			l0-0.2c0-0.4,0.3-0.8,0.7-0.8c0.4,0,0.8,0.3,0.8,0.7l0,0.2C257.5,191.2,257.1,191.6,256.7,191.6
			C256.7,191.6,256.7,191.6,256.7,191.6z M367.1,188.1c-0.4,0-0.8-0.4-0.8-0.8v-0.2c0-0.4,0.4-0.8,0.8-0.8c0.4,0,0.8,0.4,0.8,0.8
			v0.2C367.9,187.7,367.5,188.1,367.1,188.1z M256.5,187.5C256.5,187.5,256.5,187.5,256.5,187.5c-0.4,0-0.8-0.4-0.8-0.8l0-0.2
			c0-0.4,0.3-0.8,0.8-0.8c0.4,0,0.8,0.4,0.8,0.8l0,0.2C257.3,187.1,257,187.5,256.5,187.5z M367,184.7c-0.4,0-0.8-0.3-0.8-0.7l0-0.2
			c0-0.4,0.3-0.8,0.7-0.8c0.4,0,0.8,0.3,0.8,0.7l0,0.2C367.8,184.3,367.5,184.7,367,184.7C367,184.7,367,184.7,367,184.7z
			 M256.7,183.3C256.7,183.3,256.7,183.3,256.7,183.3c-0.5,0-0.8-0.4-0.8-0.9l0-0.2c0-0.4,0.4-0.7,0.9-0.7c0.4,0,0.8,0.4,0.7,0.9
			l0,0.2C257.5,183,257.1,183.3,256.7,183.3z M366.6,180.6c-0.4,0-0.7-0.3-0.8-0.7l0-0.2c-0.1-0.4,0.3-0.8,0.7-0.9
			c0.4-0.1,0.8,0.2,0.9,0.7l0,0.2c0.1,0.4-0.2,0.8-0.7,0.9C366.7,180.6,366.6,180.6,366.6,180.6z M257.2,179.2c0,0-0.1,0-0.1,0
			c-0.4-0.1-0.7-0.5-0.7-0.9l0-0.2c0.1-0.4,0.5-0.7,0.9-0.7c0.4,0.1,0.7,0.5,0.7,0.9l0,0.2C257.9,178.9,257.6,179.2,257.2,179.2z
			 M365.9,176.5c-0.4,0-0.7-0.3-0.8-0.6l0-0.2c-0.1-0.4,0.2-0.8,0.6-0.9c0.4-0.1,0.8,0.2,0.9,0.6l0,0.2c0.1,0.4-0.2,0.8-0.6,0.9
			C366,176.5,366,176.5,365.9,176.5z M258,175.1c-0.1,0-0.1,0-0.2,0c-0.4-0.1-0.7-0.5-0.6-0.9l0-0.2c0.1-0.4,0.5-0.7,1-0.6
			c0.4,0.1,0.7,0.5,0.6,1l0,0.2C258.7,174.9,258.4,175.1,258,175.1z M364.9,172.5c-0.3,0-0.7-0.2-0.8-0.6l-0.1-0.2
			c-0.1-0.4,0.1-0.9,0.5-1c0.4-0.1,0.9,0.1,1,0.5l0.1,0.2c0.1,0.4-0.1,0.9-0.5,1C365.1,172.5,365,172.5,364.9,172.5z M259.1,171.2
			c-0.1,0-0.2,0-0.2,0c-0.4-0.1-0.6-0.6-0.5-1l0.1-0.2c0.1-0.4,0.6-0.6,1-0.5c0.4,0.1,0.6,0.6,0.5,1l-0.1,0.2
			C259.7,170.9,259.4,171.2,259.1,171.2z M363.6,168.6c-0.3,0-0.6-0.2-0.7-0.5l-0.1-0.2c-0.2-0.4,0.1-0.9,0.5-1
			c0.4-0.1,0.9,0.1,1,0.5l0.1,0.2c0.2,0.4,0,0.9-0.5,1C363.8,168.5,363.7,168.6,363.6,168.6z M260.5,167.2c-0.1,0-0.2,0-0.3-0.1
			c-0.4-0.2-0.6-0.6-0.4-1l0.1-0.2c0.2-0.4,0.6-0.6,1-0.4c0.4,0.2,0.6,0.6,0.4,1l-0.1,0.2C261.1,167.1,260.8,167.2,260.5,167.2z
			 M362,164.7c-0.3,0-0.6-0.2-0.7-0.5l-0.1-0.2c-0.2-0.4,0-0.9,0.4-1.1c0.4-0.2,0.9,0,1,0.4l0.1,0.2c0.2,0.4,0,0.9-0.4,1
			C362.2,164.7,362.1,164.7,362,164.7z M262.2,163.5c-0.1,0-0.2,0-0.3-0.1c-0.4-0.2-0.6-0.7-0.4-1.1l0.1-0.2
			c0.2-0.4,0.7-0.5,1.1-0.4c0.4,0.2,0.5,0.7,0.4,1.1l-0.1,0.2C262.8,163.3,262.5,163.5,262.2,163.5z M360.1,161
			c-0.3,0-0.5-0.1-0.7-0.4l-0.1-0.2c-0.2-0.4-0.1-0.9,0.3-1.1c0.4-0.2,0.9-0.1,1.1,0.3l0.1,0.1c0.2,0.4,0.1,0.9-0.3,1.1
			C360.4,161,360.2,161,360.1,161z M264.2,159.8c-0.1,0-0.3,0-0.4-0.1c-0.4-0.2-0.5-0.7-0.3-1.1l0.1-0.2c0.2-0.4,0.7-0.5,1.1-0.3
			c0.4,0.2,0.5,0.7,0.3,1.1l-0.1,0.2C264.7,159.7,264.4,159.8,264.2,159.8z M358,157.5c-0.3,0-0.5-0.1-0.7-0.4l-0.1-0.2
			c-0.2-0.4-0.1-0.9,0.2-1.1c0.4-0.2,0.9-0.1,1.1,0.2l0.1,0.2c0.2,0.4,0.1,0.9-0.2,1.1C358.3,157.5,358.1,157.5,358,157.5z
			 M266.4,156.3c-0.2,0-0.3,0-0.5-0.1c-0.4-0.3-0.4-0.7-0.2-1.1l0.1-0.2c0.2-0.4,0.7-0.4,1.1-0.2c0.4,0.3,0.4,0.7,0.2,1.1l-0.1,0.2
			C266.9,156.2,266.7,156.3,266.4,156.3z M355.6,154.1c-0.2,0-0.5-0.1-0.6-0.3l-0.1-0.2c-0.3-0.3-0.2-0.8,0.1-1.1
			c0.3-0.3,0.8-0.2,1.1,0.1l0.1,0.2c0.3,0.3,0.2,0.8-0.1,1.1C355.9,154.1,355.8,154.1,355.6,154.1z M268.9,153
			c-0.2,0-0.4-0.1-0.5-0.2c-0.3-0.3-0.4-0.8-0.1-1.1l0.1-0.1c0.3-0.3,0.8-0.4,1.1-0.1c0.3,0.3,0.4,0.8,0.1,1.1l-0.1,0.2
			C269.4,152.9,269.1,153,268.9,153z M352.9,151c-0.2,0-0.4-0.1-0.6-0.3l-0.1-0.1c-0.3-0.3-0.3-0.8,0.1-1.1c0.3-0.3,0.8-0.3,1.1,0.1
			l0.1,0.1c0.3,0.3,0.3,0.8-0.1,1.1C353.3,150.9,353.1,151,352.9,151z M271.6,149.9c-0.2,0-0.4-0.1-0.5-0.2c-0.3-0.3-0.3-0.8,0-1.1
			l0.1-0.1c0.3-0.3,0.8-0.3,1.1,0c0.3,0.3,0.3,0.8,0,1.1l-0.1,0.1C272.1,149.8,271.8,149.9,271.6,149.9z M350.1,148
			c-0.2,0-0.4-0.1-0.5-0.2l-0.1-0.1c-0.3-0.3-0.3-0.8,0-1.1c0.3-0.3,0.8-0.3,1.1,0l0.1,0.1c0.3,0.3,0.3,0.8,0,1.1
			C350.5,147.9,350.3,148,350.1,148z M274.6,147c-0.2,0-0.4-0.1-0.6-0.3c-0.3-0.3-0.3-0.8,0.1-1.1l0.1-0.1c0.3-0.3,0.8-0.3,1.1,0.1
			c0.3,0.3,0.3,0.8-0.1,1.1l-0.1,0.1C275,146.9,274.8,147,274.6,147z M347,145.2c-0.2,0-0.4-0.1-0.5-0.2l-0.2-0.1
			c-0.3-0.3-0.4-0.8-0.1-1.1c0.3-0.3,0.8-0.4,1.1-0.1l0.2,0.1c0.3,0.3,0.4,0.8,0.1,1.1C347.4,145.1,347.2,145.2,347,145.2z
			 M277.8,144.3c-0.2,0-0.5-0.1-0.6-0.3c-0.3-0.3-0.2-0.8,0.1-1.1l0.1-0.1c0.3-0.3,0.9-0.2,1.1,0.1c0.3,0.3,0.2,0.8-0.1,1.1
			l-0.2,0.1C278.1,144.3,277.9,144.3,277.8,144.3z M343.7,142.7c-0.2,0-0.3,0-0.5-0.1l-0.2-0.1c-0.4-0.2-0.4-0.7-0.2-1.1
			c0.2-0.4,0.7-0.4,1.1-0.2l0.2,0.1c0.4,0.2,0.4,0.7,0.2,1.1C344.2,142.6,343.9,142.7,343.7,142.7z M281.1,141.9
			c-0.3,0-0.5-0.1-0.7-0.4c-0.2-0.4-0.1-0.9,0.2-1.1l0.2-0.1c0.4-0.2,0.9-0.1,1.1,0.2c0.2,0.4,0.2,0.9-0.2,1.1l-0.2,0.1
			C281.4,141.8,281.3,141.9,281.1,141.9z M340.2,140.4c-0.1,0-0.3,0-0.4-0.1l-0.2-0.1c-0.4-0.2-0.5-0.7-0.3-1.1
			c0.2-0.4,0.7-0.5,1.1-0.3l0.2,0.1c0.4,0.2,0.5,0.7,0.3,1.1C340.7,140.3,340.5,140.4,340.2,140.4z M284.6,139.7
			c-0.3,0-0.5-0.1-0.7-0.4c-0.2-0.4-0.1-0.9,0.3-1.1l0.2-0.1c0.4-0.2,0.9-0.1,1.1,0.3c0.2,0.4,0.1,0.9-0.3,1.1l-0.2,0.1
			C284.9,139.7,284.8,139.7,284.6,139.7z M336.6,138.4c-0.1,0-0.2,0-0.4-0.1l-0.2-0.1c-0.4-0.2-0.6-0.7-0.4-1.1
			c0.2-0.4,0.7-0.6,1.1-0.4l0.2,0.1c0.4,0.2,0.5,0.7,0.4,1.1C337.1,138.3,336.9,138.4,336.6,138.4z M288.3,137.8
			c-0.3,0-0.6-0.2-0.7-0.5c-0.2-0.4,0-0.9,0.4-1.1l0.2-0.1c0.4-0.2,0.9,0,1.1,0.4c0.2,0.4,0,0.9-0.4,1.1l-0.2,0.1
			C288.5,137.8,288.4,137.8,288.3,137.8z M332.8,136.7c-0.1,0-0.2,0-0.3-0.1l-0.2-0.1c-0.4-0.2-0.6-0.6-0.4-1c0.2-0.4,0.6-0.6,1-0.4
			l0.2,0.1c0.4,0.2,0.6,0.6,0.4,1C333.4,136.5,333.1,136.7,332.8,136.7z M292.1,136.2c-0.3,0-0.6-0.2-0.7-0.5c-0.2-0.4,0-0.9,0.4-1
			l0,0l0.2-0.1c0.4-0.2,0.9,0,1,0.4c0.2,0.4,0,0.9-0.5,1l-0.2,0.1C292.3,136.2,292.2,136.2,292.1,136.2z M328.9,135.3
			c-0.1,0-0.2,0-0.2,0l-0.2-0.1c-0.4-0.1-0.6-0.6-0.5-1c0.1-0.4,0.6-0.6,1-0.5l0.2,0.1c0.4,0.1,0.6,0.6,0.5,1
			C329.5,135.1,329.2,135.3,328.9,135.3z M296,134.9c-0.3,0-0.7-0.2-0.8-0.6c-0.1-0.4,0.1-0.9,0.5-1l0.2-0.1c0.4-0.1,0.9,0.1,1,0.5
			c0.1,0.4-0.1,0.9-0.5,1l-0.2,0.1C296.2,134.9,296.1,134.9,296,134.9z M324.9,134.2c-0.1,0-0.1,0-0.2,0l-0.2,0
			c-0.4-0.1-0.7-0.5-0.6-1c0.1-0.4,0.5-0.7,1-0.6l0.2,0c0.4,0.1,0.7,0.5,0.6,1C325.6,133.9,325.3,134.2,324.9,134.2z M300.1,133.8
			c-0.4,0-0.7-0.3-0.8-0.6c-0.1-0.4,0.2-0.8,0.6-0.9l0.2,0c0.4-0.1,0.8,0.2,0.9,0.6c0.1,0.4-0.2,0.8-0.6,0.9l-0.2,0
			C300.2,133.8,300.1,133.8,300.1,133.8z M320.8,133.3c0,0-0.1,0-0.1,0l-0.2,0c-0.4-0.1-0.7-0.5-0.7-0.9c0.1-0.4,0.5-0.7,0.9-0.7
			l0,0l0.2,0c0.4,0.1,0.7,0.5,0.7,0.9C321.6,133.1,321.2,133.3,320.8,133.3z M304.1,133.1c-0.4,0-0.7-0.3-0.8-0.7
			c-0.1-0.4,0.2-0.8,0.7-0.9l0.2,0c0.4-0.1,0.8,0.2,0.9,0.7c0.1,0.4-0.2,0.8-0.7,0.9l-0.2,0C304.2,133.1,304.2,133.1,304.1,133.1z
			 M316.7,132.8C316.7,132.8,316.7,132.8,316.7,132.8l-0.3,0c-0.4,0-0.8-0.4-0.7-0.9c0-0.4,0.4-0.8,0.9-0.7l0.2,0
			c0.4,0,0.8,0.4,0.7,0.9C317.5,132.5,317.1,132.8,316.7,132.8z M308.3,132.7c-0.4,0-0.8-0.3-0.8-0.7c0-0.4,0.3-0.8,0.7-0.8l0.2,0
			c0.4,0,0.8,0.3,0.8,0.7c0,0.4-0.3,0.8-0.7,0.8L308.3,132.7C308.3,132.7,308.3,132.7,308.3,132.7z M312.6,132.6
			C312.6,132.6,312.6,132.6,312.6,132.6l-0.2,0c-0.4,0-0.8-0.4-0.8-0.8c0-0.4,0.4-0.8,0.8-0.8l0.2,0c0.4,0,0.8,0.4,0.8,0.8
			C313.4,132.3,313,132.6,312.6,132.6z"/>
	</g>
	<g>
		<path fill="#FFFFFF" d="M276.7,176.7h2.4v16.3h7.8v2h-10.2V176.7z"/>
		<path fill="#FFFFFF" d="M292.1,178.2c0,0.8-0.6,1.5-1.5,1.5c-0.9,0-1.4-0.7-1.4-1.5c0-0.8,0.6-1.5,1.5-1.5
			C291.6,176.7,292.1,177.4,292.1,178.2z M289.5,195.1v-13.1h2.4v13.1H289.5z"/>
		<path fill="#FFFFFF" d="M295.7,195.1c0.1-0.9,0.1-2.2,0.1-3.4v-15.9h2.4v8.3h0.1c0.8-1.5,2.4-2.4,4.5-2.4c3.3,0,5.6,2.7,5.6,6.7
			c0,4.7-3,7.1-5.9,7.1c-1.9,0-3.4-0.7-4.4-2.5h-0.1l-0.1,2.2H295.7z M298.2,189.8c0,0.3,0,0.6,0.1,0.9c0.4,1.7,1.9,2.8,3.6,2.8
			c2.5,0,4-2,4-5.1c0-2.6-1.4-4.9-3.9-4.9c-1.6,0-3.1,1.1-3.6,2.9c-0.1,0.3-0.1,0.6-0.1,1V189.8z"/>
		<path fill="#FFFFFF" d="M315.4,195.1l-6-18.3h2.6l2.8,9c0.8,2.5,1.5,4.7,2,6.8h0.1c0.5-2.1,1.3-4.4,2.1-6.8l3.1-9.1h2.5l-6.5,18.3
			H315.4z"/>
		<path fill="#FFFFFF" d="M328.7,178.2c0,0.8-0.6,1.5-1.5,1.5c-0.9,0-1.4-0.7-1.4-1.5c0-0.8,0.6-1.5,1.5-1.5
			C328.1,176.7,328.7,177.4,328.7,178.2z M326,195.1v-13.1h2.4v13.1H326z"/>
		<path fill="#FFFFFF" d="M332.4,186c0-1.6,0-2.9-0.1-4.1h2.1l0.1,2.6h0.1c0.6-1.8,2.1-2.9,3.7-2.9c0.3,0,0.4,0,0.7,0.1v2.2
			c-0.2-0.1-0.5-0.1-0.8-0.1c-1.7,0-2.9,1.3-3.2,3.1c-0.1,0.3-0.1,0.7-0.1,1.1v7h-2.4V186z"/>
		<path fill="#FFFFFF" d="M344.8,178.1v3.8h3.4v1.8h-3.4v7.1c0,1.6,0.5,2.6,1.8,2.6c0.6,0,1.1-0.1,1.4-0.2l0.1,1.8
			c-0.5,0.2-1.2,0.3-2.1,0.3c-1.1,0-2-0.4-2.6-1c-0.7-0.7-0.9-1.9-0.9-3.4v-7.2h-2v-1.8h2v-3.2L344.8,178.1z"/>
	</g>
	<g>
		<path fill="#FFFFFF" d="M118,52.2l2.6,7.4c0.4,1.2,0.8,2.3,1.1,3.4h0.1c0.3-1.1,0.7-2.2,1.1-3.4l2.6-7.4h2.5l-5.2,13.1h-2.3
			l-5-13.1H118z"/>
		<path fill="#FFFFFF" d="M132.9,48.5c0,0.8-0.6,1.5-1.5,1.5c-0.9,0-1.4-0.7-1.4-1.5c0-0.8,0.6-1.5,1.5-1.5
			C132.3,47,132.9,47.7,132.9,48.5z M130.2,65.4V52.2h2.4v13.1H130.2z"/>
		<path fill="#FFFFFF" d="M136.6,56.3c0-1.6,0-2.9-0.1-4.1h2.1l0.1,2.6h0.1c0.6-1.8,2.1-2.9,3.7-2.9c0.3,0,0.4,0,0.7,0.1v2.2
			c-0.2-0.1-0.5-0.1-0.8-0.1c-1.7,0-2.9,1.3-3.2,3.1c-0.1,0.3-0.1,0.7-0.1,1.1v7h-2.4V56.3z"/>
		<path fill="#FFFFFF" d="M145.1,62.9c0.7,0.5,2,0.9,3.2,0.9c1.7,0,2.6-0.9,2.6-2c0-1.1-0.7-1.8-2.4-2.4c-2.4-0.9-3.5-2.2-3.5-3.7
			c0-2.1,1.7-3.9,4.5-3.9c1.3,0,2.5,0.4,3.2,0.8l-0.6,1.7c-0.5-0.3-1.5-0.8-2.7-0.8c-1.4,0-2.2,0.8-2.2,1.8c0,1.1,0.8,1.6,2.5,2.2
			c2.3,0.8,3.4,2,3.5,4c0,2.3-1.8,4-4.9,4c-1.4,0-2.8-0.4-3.7-0.9L145.1,62.9z"/>
		<path fill="#FFFFFF" d="M156.2,46.1h2.4v8.2h0.1c0.4-0.7,1-1.3,1.7-1.7c0.7-0.4,1.5-0.7,2.4-0.7c1.8,0,4.6,1.1,4.6,5.6v7.8H165
			v-7.6c0-2.1-0.8-3.9-3-3.9c-1.6,0-2.8,1.1-3.2,2.4c-0.1,0.3-0.2,0.7-0.2,1.1v7.9h-2.4V46.1z"/>
	</g>
	<g>
		<path fill="#FFFFFF" d="M422.8,285.4l-6-18.3h2.6l2.8,9c0.8,2.5,1.5,4.7,2,6.8h0.1c0.5-2.1,1.3-4.4,2.1-6.8l3.1-9.1h2.5l-6.5,18.3
			H422.8z"/>
		<path fill="#FFFFFF" d="M440.3,285.4l-0.2-1.7H440c-0.7,1-2.1,2-4,2c-2.7,0-4-1.9-4-3.8c0-3.2,2.8-4.9,7.9-4.9v-0.3
			c0-1.1-0.3-3-3-3c-1.2,0-2.5,0.4-3.4,1l-0.5-1.6c1.1-0.7,2.7-1.2,4.3-1.2c4,0,5,2.7,5,5.4v4.9c0,1.1,0.1,2.2,0.2,3.1H440.3z
			 M439.9,278.7c-2.6-0.1-5.6,0.4-5.6,3c0,1.6,1,2.3,2.2,2.3c1.7,0,2.8-1.1,3.2-2.2c0.1-0.3,0.1-0.5,0.1-0.8V278.7z"/>
		<path fill="#FFFFFF" d="M457.4,272.2c-0.1,0.9-0.1,2-0.1,3.6v7.6c0,3-0.6,4.9-1.9,6c-1.3,1.2-3.1,1.6-4.8,1.6
			c-1.6,0-3.3-0.4-4.4-1.1l0.6-1.8c0.9,0.5,2.2,1.1,3.9,1.1c2.4,0,4.2-1.3,4.2-4.6v-1.5h-0.1c-0.7,1.2-2.2,2.2-4.2,2.2
			c-3.3,0-5.6-2.8-5.6-6.4c0-4.5,2.9-7,5.9-7c2.3,0,3.5,1.2,4.1,2.3h0.1l0.1-2H457.4z M454.9,277.4c0-0.4,0-0.7-0.1-1.1
			c-0.4-1.4-1.6-2.5-3.4-2.5c-2.3,0-3.9,1.9-3.9,5c0,2.6,1.3,4.7,3.9,4.7c1.5,0,2.8-0.9,3.3-2.5c0.1-0.4,0.2-0.9,0.2-1.3V277.4z"/>
		<path fill="#FFFFFF" d="M461.1,276.3c0-1.6,0-2.9-0.1-4.1h2.1l0.1,2.6h0.1c0.6-1.8,2.1-2.9,3.7-2.9c0.3,0,0.4,0,0.7,0.1v2.2
			c-0.2-0.1-0.5-0.1-0.8-0.1c-1.7,0-2.9,1.3-3.2,3.1c-0.1,0.3-0.1,0.7-0.1,1.1v7h-2.4V276.3z"/>
		<path fill="#FFFFFF" d="M477.1,285.4l-0.2-1.7h-0.1c-0.7,1-2.1,2-4,2c-2.7,0-4-1.9-4-3.8c0-3.2,2.8-4.9,7.9-4.9v-0.3
			c0-1.1-0.3-3-3-3c-1.2,0-2.5,0.4-3.4,1l-0.5-1.6c1.1-0.7,2.7-1.2,4.3-1.2c4,0,5,2.7,5,5.4v4.9c0,1.1,0.1,2.2,0.2,3.1H477.1z
			 M476.8,278.7c-2.6-0.1-5.6,0.4-5.6,3c0,1.6,1,2.3,2.2,2.3c1.7,0,2.8-1.1,3.2-2.2c0.1-0.3,0.1-0.5,0.1-0.8V278.7z"/>
		<path fill="#FFFFFF" d="M483,275.8c0-1.4,0-2.5-0.1-3.6h2.1l0.1,2.2h0.1c0.6-1.2,2.2-2.5,4.3-2.5c1.8,0,4.6,1.1,4.6,5.6v7.8h-2.4
			v-7.6c0-2.1-0.8-3.9-3-3.9c-1.6,0-2.8,1.1-3.2,2.5c-0.1,0.3-0.2,0.7-0.2,1.1v7.9H483V275.8z"/>
		<path fill="#FFFFFF" d="M500.8,268.5v3.8h3.4v1.8h-3.4v7.1c0,1.6,0.5,2.6,1.8,2.6c0.6,0,1.1-0.1,1.4-0.2l0.1,1.8
			c-0.5,0.2-1.2,0.3-2.1,0.3c-1.1,0-2-0.4-2.6-1c-0.7-0.7-0.9-1.9-0.9-3.4v-7.2h-2v-1.8h2v-3.2L500.8,268.5z"/>
	</g>
	<g>
		<path fill="#FFFFFF" d="M412.1,89.3l2.6,7.4c0.4,1.2,0.8,2.3,1.1,3.4h0.1c0.3-1.1,0.7-2.2,1.1-3.4l2.6-7.4h2.5l-5.2,13.1h-2.3
			l-5-13.1H412.1z"/>
		<path fill="#FFFFFF" d="M426.9,85.6c0,0.8-0.6,1.5-1.5,1.5c-0.9,0-1.4-0.7-1.4-1.5c0-0.8,0.6-1.5,1.5-1.5
			C426.3,84.1,426.9,84.8,426.9,85.6z M424.2,102.5V89.3h2.4v13.1H424.2z"/>
		<path fill="#FFFFFF" d="M430.6,93.4c0-1.6,0-2.9-0.1-4.1h2.1l0.1,2.6h0.1c0.6-1.8,2.1-2.9,3.7-2.9c0.3,0,0.4,0,0.7,0.1v2.2
			c-0.2-0.1-0.5-0.1-0.8-0.1c-1.7,0-2.9,1.3-3.2,3.1c-0.1,0.3-0.1,0.7-0.1,1.1v7h-2.4V93.4z"/>
		<path fill="#FFFFFF" d="M443,85.6v3.8h3.4v1.8H443v7.1c0,1.6,0.5,2.6,1.8,2.6c0.6,0,1.1-0.1,1.4-0.2l0.1,1.8
			c-0.5,0.2-1.2,0.3-2.1,0.3c-1.1,0-2-0.4-2.6-1c-0.7-0.7-0.9-1.9-0.9-3.4v-7.2h-2v-1.8h2v-3.2L443,85.6z"/>
		<path fill="#FFFFFF" d="M454.5,94.3V96h-6.7v-1.8H454.5z"/>
		<path fill="#FFFFFF" d="M457.3,92.9c0-1.4,0-2.5-0.1-3.6h2.1l0.1,2.1h0.1c0.7-1.3,2-2.4,4.2-2.4c1.8,0,3.1,1.1,3.7,2.6h0.1
			c0.4-0.7,0.9-1.3,1.5-1.7c0.8-0.6,1.7-0.9,2.9-0.9c1.8,0,4.3,1.1,4.3,5.7v7.7h-2.3v-7.4c0-2.5-0.9-4.1-2.9-4.1
			c-1.4,0-2.4,1-2.8,2.2c-0.1,0.3-0.2,0.8-0.2,1.2v8.1h-2.3v-7.9c0-2.1-0.9-3.6-2.7-3.6c-1.5,0-2.6,1.2-3,2.4
			c-0.1,0.4-0.2,0.8-0.2,1.2v7.9h-2.3V92.9z"/>
		<path fill="#FFFFFF" d="M487.3,102.5l-0.2-1.7H487c-0.7,1-2.1,2-4,2c-2.7,0-4-1.9-4-3.8c0-3.2,2.8-4.9,7.9-4.9v-0.3
			c0-1.1-0.3-3-3-3c-1.2,0-2.5,0.4-3.4,1l-0.5-1.6c1.1-0.7,2.7-1.2,4.3-1.2c4,0,5,2.7,5,5.4v4.9c0,1.1,0.1,2.2,0.2,3.1H487.3z
			 M486.9,95.8c-2.6-0.1-5.6,0.4-5.6,3c0,1.6,1,2.3,2.2,2.3c1.7,0,2.8-1.1,3.2-2.2c0.1-0.3,0.1-0.5,0.1-0.8V95.8z"/>
		<path fill="#FFFFFF" d="M493.1,92.9c0-1.4,0-2.5-0.1-3.6h2.1l0.1,2.2h0.1c0.6-1.2,2.2-2.5,4.3-2.5c1.8,0,4.6,1.1,4.6,5.6v7.8h-2.4
			v-7.6c0-2.1-0.8-3.9-3-3.9c-1.6,0-2.8,1.1-3.2,2.5c-0.1,0.3-0.2,0.7-0.2,1.1v7.9h-2.4V92.9z"/>
		<path fill="#FFFFFF" d="M515.5,102.5l-0.2-1.7h-0.1c-0.7,1-2.1,2-4,2c-2.7,0-4-1.9-4-3.8c0-3.2,2.8-4.9,7.9-4.9v-0.3
			c0-1.1-0.3-3-3-3c-1.2,0-2.5,0.4-3.4,1l-0.5-1.6c1.1-0.7,2.7-1.2,4.3-1.2c4,0,5,2.7,5,5.4v4.9c0,1.1,0.1,2.2,0.2,3.1H515.5z
			 M515.1,95.8c-2.6-0.1-5.6,0.4-5.6,3c0,1.6,1,2.3,2.2,2.3c1.7,0,2.8-1.1,3.2-2.2c0.1-0.3,0.1-0.5,0.1-0.8V95.8z"/>
		<path fill="#FFFFFF" d="M532.6,89.3c-0.1,0.9-0.1,2-0.1,3.6v7.6c0,3-0.6,4.9-1.9,6c-1.3,1.2-3.1,1.6-4.8,1.6
			c-1.6,0-3.3-0.4-4.4-1.1l0.6-1.8c0.9,0.5,2.2,1.1,3.9,1.1c2.4,0,4.2-1.3,4.2-4.6v-1.5h-0.1c-0.7,1.2-2.2,2.2-4.2,2.2
			c-3.3,0-5.6-2.8-5.6-6.4c0-4.5,2.9-7,5.9-7c2.3,0,3.5,1.2,4.1,2.3h0.1l0.1-2H532.6z M530.1,94.5c0-0.4,0-0.7-0.1-1.1
			c-0.4-1.4-1.6-2.5-3.4-2.5c-2.3,0-3.9,1.9-3.9,5c0,2.6,1.3,4.7,3.9,4.7c1.5,0,2.8-0.9,3.3-2.5c0.1-0.4,0.2-0.9,0.2-1.3V94.5z"/>
		<path fill="#FFFFFF" d="M537.8,96.4c0,3.2,2.1,4.6,4.5,4.6c1.7,0,2.8-0.3,3.6-0.7l0.4,1.7c-0.8,0.4-2.3,0.8-4.4,0.8
			c-4,0-6.5-2.7-6.5-6.6c0-4,2.3-7.1,6.2-7.1c4.3,0,5.4,3.8,5.4,6.2c0,0.5,0,0.9-0.1,1.1H537.8z M544.8,94.6c0-1.5-0.6-3.9-3.3-3.9
			c-2.4,0-3.5,2.2-3.7,3.9H544.8z"/>
		<path fill="#FFFFFF" d="M550.1,93.4c0-1.6,0-2.9-0.1-4.1h2.1l0.1,2.6h0.1c0.6-1.8,2.1-2.9,3.7-2.9c0.3,0,0.4,0,0.7,0.1v2.2
			c-0.2-0.1-0.5-0.1-0.8-0.1c-1.7,0-2.9,1.3-3.2,3.1c-0.1,0.3-0.1,0.7-0.1,1.1v7h-2.4V93.4z"/>
	</g>
	<g>
		<path fill="#FFFFFF" d="M32.7,163.1c0,6.3-3.8,9.6-8.5,9.6c-4.9,0-8.2-3.8-8.2-9.3c0-5.8,3.6-9.6,8.5-9.6
			C29.5,153.9,32.7,157.7,32.7,163.1z M18.5,163.4c0,3.9,2.1,7.4,5.9,7.4c3.8,0,5.9-3.5,5.9-7.6c0-3.6-1.9-7.5-5.8-7.5
			C20.5,155.8,18.5,159.4,18.5,163.4z"/>
		<path fill="#FFFFFF" d="M35.8,163.6c0-1.7,0-3-0.1-4.3h2.1l0.1,2.2H38c1-1.6,2.5-2.5,4.7-2.5c3.2,0,5.6,2.7,5.6,6.7
			c0,4.7-2.9,7.1-6,7.1c-1.8,0-3.3-0.8-4.1-2.1h-0.1v7.2h-2.4V163.6z M38.2,167.1c0,0.3,0,0.7,0.1,1c0.4,1.7,1.9,2.8,3.6,2.8
			c2.5,0,4-2.1,4-5.1c0-2.6-1.4-4.9-3.9-4.9c-1.6,0-3.2,1.2-3.6,3c-0.1,0.3-0.2,0.7-0.2,1V167.1z"/>
		<path fill="#FFFFFF" d="M52.6,166.3c0,3.2,2.1,4.6,4.5,4.6c1.7,0,2.8-0.3,3.6-0.7l0.4,1.7c-0.8,0.4-2.3,0.8-4.4,0.8
			c-4,0-6.5-2.7-6.5-6.6c0-4,2.3-7.1,6.2-7.1c4.3,0,5.4,3.8,5.4,6.2c0,0.5,0,0.9-0.1,1.1H52.6z M59.6,164.6c0-1.5-0.6-3.9-3.3-3.9
			c-2.4,0-3.5,2.2-3.7,3.9H59.6z"/>
		<path fill="#FFFFFF" d="M64.9,162.9c0-1.4,0-2.5-0.1-3.6h2.1l0.1,2.2h0.1c0.6-1.2,2.2-2.5,4.3-2.5c1.8,0,4.6,1.1,4.6,5.6v7.8h-2.4
			v-7.6c0-2.1-0.8-3.9-3-3.9c-1.6,0-2.8,1.1-3.2,2.5c-0.1,0.3-0.2,0.7-0.2,1.1v7.9h-2.4V162.9z"/>
		<path fill="#FFFFFF" d="M79.7,169.6c1.1,0.7,2.6,1.2,4.2,1.2c2.4,0,3.8-1.3,3.8-3.1c0-1.7-1-2.7-3.5-3.6c-3-1.1-4.8-2.6-4.8-5.2
			c0-2.9,2.4-5,5.9-5c1.9,0,3.2,0.4,4,0.9l-0.7,1.9c-0.6-0.3-1.8-0.9-3.5-0.9c-2.5,0-3.5,1.5-3.5,2.7c0,1.7,1.1,2.5,3.6,3.5
			c3.1,1.2,4.7,2.7,4.7,5.4c0,2.8-2.1,5.3-6.4,5.3c-1.8,0-3.7-0.5-4.7-1.2L79.7,169.6z"/>
		<path fill="#FFFFFF" d="M96.2,155.6v3.8h3.4v1.8h-3.4v7.1c0,1.6,0.5,2.6,1.8,2.6c0.6,0,1.1-0.1,1.4-0.2l0.1,1.8
			c-0.5,0.2-1.2,0.3-2.1,0.3c-1.1,0-2-0.4-2.6-1c-0.7-0.7-0.9-1.9-0.9-3.4v-7.2h-2v-1.8h2v-3.2L96.2,155.6z"/>
		<path fill="#FFFFFF" d="M109.6,172.5l-0.2-1.7h-0.1c-0.7,1-2.1,2-4,2c-2.7,0-4-1.9-4-3.8c0-3.2,2.8-4.9,7.9-4.9v-0.3
			c0-1.1-0.3-3-3-3c-1.2,0-2.5,0.4-3.4,1l-0.5-1.6c1.1-0.7,2.7-1.2,4.3-1.2c4,0,5,2.7,5,5.4v4.9c0,1.1,0.1,2.2,0.2,3.1H109.6z
			 M109.2,165.8c-2.6-0.1-5.6,0.4-5.6,3c0,1.6,1,2.3,2.2,2.3c1.7,0,2.8-1.1,3.2-2.2c0.1-0.3,0.1-0.5,0.1-0.8V165.8z"/>
		<path fill="#FFFFFF" d="M124.8,172c-0.6,0.3-2,0.8-3.8,0.8c-4,0-6.6-2.7-6.6-6.7c0-4.1,2.8-7,7.1-7c1.4,0,2.7,0.4,3.3,0.7
			l-0.5,1.8c-0.6-0.3-1.5-0.6-2.8-0.6c-3,0-4.6,2.2-4.6,5c0,3,2,4.9,4.6,4.9c1.3,0,2.3-0.3,2.9-0.6L124.8,172z"/>
		<path fill="#FFFFFF" d="M130,165.4L130,165.4c0.4-0.5,0.8-1,1.2-1.5l3.9-4.5h2.9l-5.1,5.4l5.8,7.7h-2.9l-4.5-6.3l-1.2,1.4v5h-2.4
			v-19.3h2.4V165.4z"/>
		<path fill="#FFFFFF" d="M146.2,172.5v-18.3h2.6l5.9,9.3c1.3,2.1,2.4,4.1,3.3,6l0.1,0c-0.2-2.4-0.3-4.7-0.3-7.5v-7.7h2.2v18.3h-2.4
			l-5.8-9.3c-1.3-2.1-2.5-4.1-3.4-6.1l-0.1,0c0.1,2.3,0.2,4.5,0.2,7.6v7.8H146.2z"/>
		<path fill="#FFFFFF" d="M175.8,165.8c0,4.9-3.4,7-6.5,7c-3.6,0-6.3-2.6-6.3-6.8c0-4.4,2.9-7,6.5-7
			C173.3,159,175.8,161.8,175.8,165.8z M165.4,165.9c0,2.9,1.7,5.1,4,5.1c2.3,0,4-2.1,4-5.1c0-2.2-1.1-5-4-5
			C166.6,160.8,165.4,163.4,165.4,165.9z"/>
		<path fill="#FFFFFF" d="M179.6,159.3l2.6,7.4c0.4,1.2,0.8,2.3,1.1,3.4h0.1c0.3-1.1,0.7-2.2,1.1-3.4l2.6-7.4h2.5l-5.2,13.1H182
			l-5-13.1H179.6z"/>
		<path fill="#FFFFFF" d="M198.9,172.5l-0.2-1.7h-0.1c-0.7,1-2.1,2-4,2c-2.7,0-4-1.9-4-3.8c0-3.2,2.8-4.9,7.9-4.9v-0.3
			c0-1.1-0.3-3-3-3c-1.2,0-2.5,0.4-3.4,1l-0.5-1.6c1.1-0.7,2.7-1.2,4.3-1.2c4,0,5,2.7,5,5.4v4.9c0,1.1,0.1,2.2,0.2,3.1H198.9z
			 M198.5,165.8c-2.6-0.1-5.6,0.4-5.6,3c0,1.6,1,2.3,2.2,2.3c1.7,0,2.8-1.1,3.2-2.2c0.1-0.3,0.1-0.5,0.1-0.8V165.8z"/>
	</g>
	<g>
		<path fill="#FFFFFF" d="M501.4,233.4l-6-18.3h2.6l2.8,9c0.8,2.5,1.5,4.7,2,6.8h0.1c0.5-2.1,1.3-4.4,2.1-6.8l3.1-9.1h2.5l-6.5,18.3
			H501.4z"/>
		<path fill="#FFFFFF" d="M528,225.3c-0.1-2.5-0.3-5.6-0.3-7.9h-0.1c-0.6,2.1-1.4,4.4-2.3,6.9l-3.2,8.9h-1.8l-3-8.7
			c-0.9-2.6-1.6-4.9-2.1-7.1h-0.1c-0.1,2.3-0.2,5.3-0.4,8.1l-0.5,7.9H512l1.3-18.3h3l3.1,8.9c0.8,2.2,1.4,4.3,1.8,6.2h0.1
			c0.5-1.9,1.1-3.9,1.9-6.2l3.3-8.9h3l1.1,18.3h-2.3L528,225.3z"/>
		<path fill="#FFFFFF" d="M535.4,220.2l2.6,7.4c0.4,1.2,0.8,2.3,1.1,3.4h0.1c0.3-1.1,0.7-2.2,1.1-3.4l2.6-7.4h2.5l-5.2,13.1h-2.3
			l-5-13.1H535.4z"/>
		<path fill="#FFFFFF" d="M554.7,233.4l-0.2-1.7h-0.1c-0.7,1-2.1,2-4,2c-2.7,0-4-1.9-4-3.8c0-3.2,2.8-4.9,7.9-4.9v-0.3
			c0-1.1-0.3-3-3-3c-1.2,0-2.5,0.4-3.4,1l-0.5-1.6c1.1-0.7,2.7-1.2,4.3-1.2c4,0,5,2.7,5,5.4v4.9c0,1.1,0.1,2.2,0.2,3.1H554.7z
			 M554.4,226.7c-2.6-0.1-5.6,0.4-5.6,3c0,1.6,1,2.3,2.2,2.3c1.7,0,2.8-1.1,3.2-2.2c0.1-0.3,0.1-0.5,0.1-0.8V226.7z"/>
		<path fill="#FFFFFF" d="M560.6,224.3c0-1.6,0-2.9-0.1-4.1h2.1l0.1,2.6h0.1c0.6-1.8,2.1-2.9,3.7-2.9c0.3,0,0.4,0,0.7,0.1v2.2
			c-0.2-0.1-0.5-0.1-0.8-0.1c-1.7,0-2.9,1.3-3.2,3.1c-0.1,0.3-0.1,0.7-0.1,1.1v7h-2.4V224.3z"/>
		<path fill="#FFFFFF" d="M570.5,227.2c0,3.2,2.1,4.6,4.5,4.6c1.7,0,2.8-0.3,3.6-0.7l0.4,1.7c-0.8,0.4-2.3,0.8-4.4,0.8
			c-4,0-6.5-2.7-6.5-6.6c0-4,2.3-7.1,6.2-7.1c4.3,0,5.4,3.8,5.4,6.2c0,0.5,0,0.9-0.1,1.1H570.5z M577.5,225.5c0-1.5-0.6-3.9-3.3-3.9
			c-2.4,0-3.5,2.2-3.7,3.9H577.5z"/>
	</g>
	<g>
		<path fill="#FFFFFF" d="M341.3,16.3h2.4v16.3h7.8v2h-10.2V16.3z"/>
		<path fill="#FFFFFF" d="M364.2,34.7l-2.4-4c-1-1.5-1.5-2.6-2.1-3.6h-0.1c-0.5,1.1-1,2-2,3.6l-2.2,4h-2.7l5.6-9.3l-5.4-9h2.7
			l2.4,4.3c0.7,1.2,1.2,2.1,1.7,3.1h0.1c0.5-1.1,1-1.9,1.7-3.1l2.5-4.3h2.7l-5.6,8.9l5.7,9.4H364.2z"/>
		<path fill="#FFFFFF" d="M381.7,34.1c-0.9,0.4-2.6,0.9-4.8,0.9c-5.2,0-9-3.3-9-9.3c0-5.8,3.9-9.6,9.6-9.6c2.3,0,3.7,0.5,4.3,0.8
			l-0.6,1.9c-0.9-0.4-2.2-0.8-3.7-0.8c-4.3,0-7.1,2.7-7.1,7.6c0,4.5,2.6,7.3,7,7.3c1.5,0,2.9-0.3,3.9-0.8L381.7,34.1z"/>
	</g>
	<g>
		<path fill="#C1BFBC" d="M313.1,122.9h-2.4V59.8c0-9.5,7.7-17.3,17.3-17.3h63.7v2.4H328c-8.2,0-14.9,6.7-14.9,14.9V122.9z"/>
	</g>
	<g>
		<path fill="#FFFFFF" d="M66.2,268.6h2.4v8.8h0.1c0.5-0.7,1-1.4,1.4-1.9l5.6-6.9h2.9l-6.6,7.8l7.2,10.5h-2.8l-6-9l-1.8,2v7h-2.4
			V268.6z"/>
		<path fill="#FFFFFF" d="M85.4,286.9l-6-18.3h2.6l2.8,9c0.8,2.5,1.5,4.7,2,6.8h0.1c0.5-2.1,1.3-4.4,2.1-6.8l3.1-9.1h2.5L88,286.9
			H85.4z"/>
		<path fill="#FFFFFF" d="M111.9,278.9c-0.1-2.5-0.3-5.6-0.3-7.9h-0.1c-0.6,2.1-1.4,4.4-2.3,6.9l-3.2,8.9h-1.8l-3-8.7
			c-0.9-2.6-1.6-4.9-2.1-7.1h-0.1c-0.1,2.3-0.2,5.3-0.4,8.1l-0.5,7.9H96l1.3-18.3h3l3.1,8.9c0.8,2.2,1.4,4.3,1.8,6.2h0.1
			c0.5-1.9,1.1-3.9,1.9-6.2l3.3-8.9h3l1.1,18.3h-2.3L111.9,278.9z"/>
		<path fill="#FFFFFF" d="M122,288l7.6-19.7h1.9l-7.6,19.7H122z"/>
		<path fill="#FFFFFF" d="M154.3,289.6c-2.5-0.6-4.9-1.4-7-2.1c-0.4-0.1-0.7-0.3-1.1-0.3c-4.4-0.2-8.1-3.4-8.1-9.3
			c0-5.9,3.6-9.6,8.5-9.6c5,0,8.2,3.9,8.2,9.3c0,4.7-2.2,7.7-5.2,8.8v0.1c1.8,0.5,3.8,0.9,5.4,1.2L154.3,289.6z M152.4,277.7
			c0-3.7-1.9-7.5-5.8-7.5c-4,0-5.9,3.7-5.9,7.7c0,3.9,2.1,7.4,5.8,7.4C150.2,285.3,152.4,281.8,152.4,277.7z"/>
		<path fill="#FFFFFF" d="M159.3,280.8c0,3.2,2.1,4.6,4.5,4.6c1.7,0,2.8-0.3,3.6-0.7l0.4,1.7c-0.8,0.4-2.3,0.8-4.4,0.8
			c-4,0-6.5-2.7-6.5-6.6c0-4,2.3-7.1,6.2-7.1c4.3,0,5.4,3.8,5.4,6.2c0,0.5,0,0.9-0.1,1.1H159.3z M166.3,279c0-1.5-0.6-3.9-3.3-3.9
			c-2.4,0-3.5,2.2-3.7,3.9H166.3z"/>
		<path fill="#FFFFFF" d="M171.6,277.3c0-1.4,0-2.5-0.1-3.6h2.1l0.1,2.1h0.1c0.7-1.3,2-2.4,4.2-2.4c1.8,0,3.1,1.1,3.7,2.6h0.1
			c0.4-0.7,0.9-1.3,1.5-1.7c0.8-0.6,1.7-0.9,2.9-0.9c1.8,0,4.3,1.1,4.3,5.7v7.7H188v-7.4c0-2.5-0.9-4.1-2.9-4.1
			c-1.4,0-2.4,1-2.8,2.2c-0.1,0.3-0.2,0.8-0.2,1.2v8.1h-2.3V279c0-2.1-0.9-3.6-2.7-3.6c-1.5,0-2.6,1.2-3,2.4
			c-0.1,0.4-0.2,0.8-0.2,1.2v7.9h-2.3V277.3z"/>
		<path fill="#FFFFFF" d="M205.2,283.3c0,1.4,0,2.6,0.1,3.6h-2.1l-0.1-2.2H203c-0.6,1.1-2,2.4-4.4,2.4c-2.1,0-4.5-1.2-4.5-5.8v-7.7
			h2.4v7.3c0,2.5,0.8,4.2,2.9,4.2c1.6,0,2.7-1.1,3.2-2.2c0.1-0.3,0.2-0.8,0.2-1.2v-8.1h2.4V283.3z"/>
	</g>
</g>
</svg>
